<svg width="32" height="32" viewBox="0 0 32 32" fill="none" xmlns="http://www.w3.org/2000/svg">
<g clip-path="url(#clip0)">
<path fill-rule="evenodd" clip-rule="evenodd" d="M2.5 0.125C1.11929 0.125 0 1.24429 0 2.625V29.625C0 31.0057 1.11929 32.125 2.5 32.125H29.5C30.8807 32.125 32 31.0057 32 29.625V2.625C32 1.24429 30.8807 0.125 29.5 0.125H2.5ZM7.60535 3.48254C7.60535 3.48254 7.58948 3.02699 7.9027 3.01018C7.97498 3.0063 8.06468 3.02592 8.17624 3.07977C9.9035 5.94272 12.7895 7.61544 15.9644 7.61464C19.1333 7.60931 22.0297 5.91884 23.7536 3.06132C24.4097 2.84765 24.343 3.46409 24.343 3.46409C22.662 6.73774 19.5318 8.36331 15.9623 8.36852C12.3881 8.36835 9.28862 6.76051 7.60535 3.48254ZM18.3374 18.6039L19.295 15.7518H19.9929L20.9505 18.6039L21.8844 15.7539H22.7716L21.3055 19.8997H20.5913L19.6326 17.1763L18.6728 19.8997H17.9643L16.4951 15.7539H17.4051L18.3374 18.6039ZM12.3502 19.8976L14.2084 15.7528L14.9565 15.7528L14.9729 15.7771L16.8141 19.8976H15.9168L15.5385 19.0346H13.6078L13.5825 19.0952L13.2237 19.8976H12.3502ZM27.6652 19.895V15.7533L28.5096 15.7534V19.895H27.6652ZM3.45361 19.9013V15.7539L4.30967 15.7539V17.4272H6.24189V15.7539H7.09796V19.9013H6.24189V18.2169H4.30967V19.9013H3.45361ZM11.0592 18.1288V15.7549L11.9148 15.755V18.0946C11.9148 19.2829 11.2496 19.9646 10.0894 19.9646C8.94015 19.9646 8.28047 19.2958 8.28047 18.1289V15.7576H9.136V18.1004C9.136 18.7931 9.47869 19.1632 10.1005 19.1632C10.7189 19.1632 11.0592 18.8032 11.0592 18.1288ZM23.4616 19.8981V15.7565L26.5652 15.7566V16.512H24.3055V17.3608H25.862V18.1162H24.3055V19.1432H26.6467V19.8981H23.4616ZM15.1814 18.191L14.5708 16.8024L13.9692 18.191L13.9285 18.2864H15.2226L15.1814 18.191Z" fill="#71A4FB"/>
</g>
<defs>
<clipPath id="clip0">
<rect width="32" height="32" fill="white"/>
</clipPath>
</defs>
</svg>
