<svg width="32" height="32" viewBox="0 0 32 32" fill="none" xmlns="http://www.w3.org/2000/svg">
<path fill-rule="evenodd" clip-rule="evenodd" d="M3 0C1.34315 0 0 1.34315 0 3V29C0 30.6569 1.34315 32 3 32H29C30.6569 32 32 30.6569 32 29V3C32 1.34315 30.6569 0 29 0H3ZM15.7307 5.69336H13.0665C11.362 5.69336 10.0726 6.09764 9.19853 6.9062C8.30256 7.71476 7.85457 8.84019 7.85457 10.2825V12.2492C7.85457 14.1067 8.63035 15.2977 10.1819 15.8222C8.41182 16.303 7.52678 17.5158 7.52678 19.4607V22.4109C7.52678 23.875 7.96384 25.0114 8.83796 25.8199C9.71208 26.6066 11.0123 27 12.7387 27H15.7307H18.0162H18.0252V18.8051L19.1069 17.0678L24.155 27H26.679L20.4837 14.8716L26.2856 5.69336H23.7288L18.0252 14.7405V5.69336H18.0162H15.7307ZM13.4308 16.6745H15.7216V20.5627H14.4009C13.4284 20.5627 12.9422 20.1256 12.9422 19.2515V17.7764C12.9422 17.3612 13.0678 17.0279 13.3191 16.7766C13.3542 16.74 13.3914 16.706 13.4308 16.6745ZM12.0376 16.7297C11.8758 17.0117 11.7949 17.3606 11.7949 17.7764V19.2515C11.7949 19.9835 12.0134 20.5517 12.4505 20.956C12.8875 21.3494 13.5377 21.546 14.4009 21.546H15.7216V25.0332H12.7387C10.7938 25.0332 9.82134 24.1591 9.82134 22.4109V19.4607C9.82134 18.6303 10.0726 17.9638 10.5753 17.4612C10.9447 17.0757 11.4321 16.8319 12.0376 16.7297ZM15.7216 11.8761V15.0355H13.3544C13.1888 14.8048 13.1061 14.5165 13.1061 14.1707V13.1873C13.1061 12.7721 13.2317 12.4497 13.483 12.2203C13.7343 11.9908 14.0949 11.8761 14.5648 11.8761H15.7216ZM15.7216 10.8927H14.5648C13.7125 10.8927 13.0678 11.0949 12.6308 11.4991C12.1828 11.9034 11.9588 12.4661 11.9588 13.1873V14.1707C11.9588 14.4527 11.9946 14.704 12.0661 14.9246C11.5871 14.8057 11.1994 14.5914 10.9031 14.2816C10.4004 13.779 10.1491 13.1015 10.1491 12.2492V10.2825C10.1491 9.45207 10.4004 8.80741 10.9031 8.34849C11.4057 7.88958 12.1268 7.66013 13.0665 7.66013H15.7216V10.8927Z" fill="#71A4FB"/>
</svg>
