<svg width="32" height="32" viewBox="0 0 32 32" fill="none" xmlns="http://www.w3.org/2000/svg">
<path fill-rule="evenodd" clip-rule="evenodd" d="M4 0C1.79086 0 0 1.79086 0 4V28C0 30.2091 1.79086 32 4 32H28C30.2091 32 32 30.2091 32 28V4C32 1.79086 30.2091 0 28 0H4ZM19.4325 7.00136C21.1195 7.29295 22.7615 7.8022 24.3175 8.51636V8.51537C24.3311 8.52126 24.3421 8.53192 24.3485 8.54536C27.0595 12.5314 28.3975 17.0284 27.8975 22.2054C27.8962 22.2161 27.8928 22.2265 27.8872 22.2358C27.8817 22.2451 27.8743 22.2531 27.8655 22.2594C26.0518 23.6035 24.022 24.6282 21.8635 25.2894C21.8542 25.2922 21.8445 25.2933 21.8349 25.2925C21.8288 25.292 21.8228 25.2908 21.817 25.2888C21.8019 25.2838 21.7888 25.2742 21.7795 25.2614C21.3265 24.6304 20.9145 23.9664 20.5545 23.2684C20.5496 23.2587 20.5467 23.2482 20.5461 23.2374C20.5457 23.2302 20.5464 23.223 20.548 23.216C20.5488 23.2125 20.5498 23.2091 20.5511 23.2057C20.555 23.1956 20.5609 23.1865 20.5686 23.1788C20.5762 23.1712 20.5854 23.1652 20.5955 23.1614C21.2438 22.9173 21.8704 22.6189 22.4685 22.2693C22.4792 22.2628 22.488 22.2537 22.4944 22.2429C22.5008 22.2321 22.5044 22.22 22.505 22.2075C22.5056 22.1949 22.5031 22.1825 22.4978 22.1711C22.4925 22.1598 22.4845 22.1499 22.4745 22.1424C22.3475 22.0484 22.2215 21.9484 22.1015 21.8504C22.096 21.8458 22.0899 21.8422 22.0834 21.8394C22.0772 21.8368 22.0706 21.835 22.0639 21.8341C22.0501 21.8324 22.0361 21.8345 22.0235 21.8404C18.1415 23.6334 13.8895 23.6334 9.96149 21.8404C9.94897 21.8347 9.93515 21.8327 9.92157 21.8344C9.90796 21.8362 9.89514 21.8417 9.88449 21.8504C9.76276 21.9506 9.63873 22.0479 9.51248 22.1424C9.50238 22.15 9.49432 22.1601 9.48901 22.1716C9.48373 22.1832 9.48138 22.1958 9.48218 22.2085C9.48297 22.2212 9.48688 22.2335 9.49356 22.2442C9.50024 22.255 9.50949 22.264 9.52048 22.2704C10.1199 22.6167 10.7459 22.9149 11.3925 23.1624C11.4025 23.1661 11.4117 23.172 11.4193 23.1795C11.427 23.187 11.4329 23.1961 11.4368 23.2061C11.4407 23.2162 11.4424 23.2269 11.4418 23.2376C11.4412 23.2484 11.4384 23.2588 11.4335 23.2684C11.0815 23.9674 10.6695 24.6324 10.2075 25.2624C10.198 25.275 10.1848 25.2844 10.1698 25.2894C10.1548 25.2944 10.1387 25.2948 10.1235 25.2904C7.9686 24.6272 5.94208 23.6026 4.13049 22.2604C4.1217 22.2535 4.11444 22.2449 4.1091 22.235C4.10376 22.2253 4.10049 22.2145 4.09949 22.2034C3.68048 17.7264 4.53348 13.1924 7.64548 8.54337C7.65314 8.53131 7.66431 8.5219 7.67749 8.51636C9.23322 7.80162 10.8753 7.29234 12.5625 7.00136C12.5779 6.99883 12.5936 7.00099 12.6077 7.0076C12.6218 7.01421 12.6336 7.02493 12.6415 7.03836C12.87 7.44336 13.076 7.86067 13.2585 8.28836C15.0771 8.01215 16.9269 8.01215 18.7455 8.28836C18.9095 7.90236 19.1435 7.41336 19.3535 7.03836C19.361 7.02463 19.3727 7.01364 19.387 7.00699C19.4012 7.00034 19.4171 6.99837 19.4325 7.00136ZM9.86349 17.0574C9.86349 18.3914 10.8375 19.4764 12.0205 19.4764C13.2215 19.4764 14.1775 18.3914 14.1775 17.0584C14.1965 15.7344 13.2305 14.6384 12.0205 14.6384C10.8195 14.6384 9.86349 15.7244 9.86349 17.0574ZM17.8385 17.0574C17.8385 18.3914 18.8125 19.4764 19.9955 19.4764C21.2065 19.4764 22.1525 18.3914 22.1525 17.0584C22.1715 15.7344 21.2055 14.6384 19.9955 14.6384C18.7935 14.6384 17.8385 15.7244 17.8385 17.0574Z" fill="#BF91F2"/>
</svg>
