<svg width="32" height="32" viewBox="0 0 32 32" fill="none" xmlns="http://www.w3.org/2000/svg">
<path d="M3.22248 0H28.7775C29.6768 0 30.4387 0.312989 31.0632 0.938967C31.6877 1.56495 32 2.3036 32 3.15493V28.8451C32 29.6964 31.6877 30.4351 31.0632 31.061C30.4387 31.687 29.6768 32 28.7775 32H20.534C20.1842 31.9499 20.0094 31.4241 20.0094 30.4225V26.0657C20.0094 24.7136 19.6347 23.7121 18.8852 23.061C21.0835 22.8106 22.8447 22.1346 24.1686 21.0329C25.4926 19.9311 26.1546 17.9781 26.1546 15.1737C26.1546 13.5211 25.605 12.0939 24.5059 10.892C25.0554 9.58998 25.0055 8.16275 24.356 6.61033C23.4567 6.30986 22.0078 6.86072 20.0094 8.26291C18.7104 7.91236 17.3614 7.73709 15.9625 7.73709C14.5636 7.73709 13.2397 7.91236 11.9906 8.26291C11.0913 7.66197 10.2795 7.22379 9.55503 6.94836C8.8306 6.67293 8.3185 6.56025 8.01874 6.61033H7.56909C6.96955 8.16275 6.91959 9.58998 7.4192 10.892C6.32006 12.0939 5.77049 13.5211 5.77049 15.1737C5.77049 17.928 6.44496 19.8685 7.79391 20.9953C9.14286 22.1221 10.8915 22.8106 13.0398 23.061C12.4902 23.5618 12.1655 24.288 12.0656 25.2394C9.96721 26.1408 8.41842 25.6901 7.4192 23.8873C6.81967 22.8858 5.99532 22.3349 4.94614 22.2347C4.84621 22.2347 4.7338 22.2473 4.6089 22.2723C4.484 22.2973 4.3466 22.385 4.19672 22.5352C4.04684 22.6854 4.24668 22.9108 4.79625 23.2113C5.54567 23.5618 6.1452 24.338 6.59485 25.5399C6.64481 25.6401 6.69477 25.7527 6.74473 25.8779C6.79469 26.0031 6.95706 26.241 7.23185 26.5915C7.50664 26.9421 7.83138 27.205 8.20609 27.3803C8.5808 27.5556 9.0929 27.7183 9.74239 27.8685C10.3919 28.0188 11.1413 27.9687 11.9906 27.7183V30.4225C11.9906 31.4241 11.7908 31.9499 11.3911 32H3.22248C2.32318 32 1.56128 31.687 0.936768 31.061C0.312256 30.4351 0 29.6964 0 28.8451V3.15493C0 2.3036 0.312256 1.56495 0.936768 0.938967C1.56128 0.312989 2.32318 0 3.22248 0Z" fill="#71A4FB"/>
</svg>
