<svg width="24" height="24" viewBox="0 0 24 24" fill="none" xmlns="http://www.w3.org/2000/svg">
<path d="M1.22 0C1.19 0.093 1.16 0.185 1.16 0.308V23.537C1.16 23.754 1.221 23.877 1.344 24L12.759 11.907L1.22 0ZM13.529 12.708L16.48 15.753L12.267 18.153C12.267 18.153 6.912 21.197 3.959 22.892L13.529 12.708ZM14.33 11.877L17.496 15.169C17.992 14.893 21.867 12.677 22.42 12.369C23.004 12.031 22.945 11.569 22.449 11.323C21.99 11.068 18.115 8.848 17.529 8.488L14.326 11.88L14.33 11.877V11.877ZM13.527 11.077L16.511 7.908L12.252 5.477C12.252 5.477 5.309 1.505 2.999 0.179L13.529 11.077H13.527Z" fill="#BF91F2"/>
</svg>
