<svg width="32" height="32" viewBox="0 0 32 32" fill="none" xmlns="http://www.w3.org/2000/svg">
<path d="M0 2.292C0 1.026 1.052 0 2.35 0H29.65C30.948 0 32 1.026 32 2.292V29.708C32 30.974 30.948 32 29.65 32H2.35C1.052 32 0 30.974 0 29.708V2.292ZM9.886 26.788V12.338H5.084V26.788H9.886ZM7.486 10.364C9.16 10.364 10.202 9.256 10.202 7.868C10.172 6.45 9.162 5.372 7.518 5.372C5.874 5.372 4.8 6.452 4.8 7.868C4.8 9.256 5.842 10.364 7.454 10.364H7.486V10.364ZM17.302 26.788V18.718C17.302 18.286 17.334 17.854 17.462 17.546C17.808 16.684 18.598 15.79 19.926 15.79C21.664 15.79 22.358 17.114 22.358 19.058V26.788H27.16V18.5C27.16 14.06 24.792 11.996 21.632 11.996C19.084 11.996 17.942 13.396 17.302 14.382V14.432H17.27C17.2806 14.4153 17.2913 14.3986 17.302 14.382V12.338H12.502C12.562 13.694 12.502 26.788 12.502 26.788H17.302Z" fill="#BF91F2"/>
</svg>
