<svg width="32" height="32" viewBox="0 0 32 32" fill="none" xmlns="http://www.w3.org/2000/svg">
<path fill-rule="evenodd" clip-rule="evenodd" d="M3 0C1.34315 0 0 1.34315 0 3V29C0 30.6569 1.34315 32 3 32H29C30.6569 32 32 30.6569 32 29V3C32 1.34315 30.6569 0 29 0H3ZM28 11.6V22.4C28 23.9366 27.7174 24.2 26.2 24.2H5.8C4.318 24.2 4 23.9 4 22.4V11.6C4 11.6 14.974 19.238 16.018 19.6154C17.08 19.22 28 11.6 28 11.6ZM26.2 8C27.664 8 27.9826 8.39 27.9826 9.4826L28 9.56C28 9.56 17.242 17.126 16.018 17.6C14.8594 17.192 4.018 9.728 4.018 9.728L4 9.56C4 8.468 4.294 8 5.8 8H26.2Z" fill="#BF91F2"/>
</svg>
