<svg width="32" height="32" viewBox="0 0 32 32" fill="none" xmlns="http://www.w3.org/2000/svg">
<path fill-rule="evenodd" clip-rule="evenodd" d="M3 0C1.34315 0 0 1.34315 0 3V29C0 30.6569 1.34315 32 3 32H29C30.6569 32 32 30.6569 32 29V3C32 1.34315 30.6569 0 29 0H3ZM8.29621 2.71108L20.253 14.8158L23.509 11.5284L8.29621 2.71108ZM4 3.93085C4 3.0502 4.47134 2.37195 5.17563 2L19.0774 15.9973L5.17563 30C4.47134 29.6281 4 28.9498 4 28.0692V3.93085ZM25.0205 12.4747L28.2115 14.3399C29.2517 15.1221 29.2517 16.8834 28.2765 17.6656L25.0205 19.5308L21.4611 16.0027L25.0205 12.4747ZM23.509 20.477L8.29621 29.2944L20.253 17.1897L23.509 20.477Z" fill="#71A4FB"/>
</svg>
