<svg width="32" height="32" viewBox="0 0 32 32" fill="none" xmlns="http://www.w3.org/2000/svg">
<path d="M29 0H3C1.35 0 0 1.35 0 3V29C0 30.65 1.35 32 3 32H29C30.65 32 32 30.65 32 29V3C32 1.35 30.65 0 29 0ZM9.768 20.812H6.312C6.22265 20.8156 6.13394 20.7955 6.05489 20.7537C5.97584 20.7119 5.90929 20.6499 5.862 20.574C5.768 20.424 5.768 20.236 5.862 20.042L9.538 13.554C9.544 13.548 9.544 13.542 9.538 13.536L7.2 9.486C7.106 9.292 7.088 9.104 7.182 8.954C7.27 8.81 7.444 8.736 7.656 8.736H11.118C11.65 8.736 11.912 9.08 12.08 9.386C12.08 9.386 14.442 13.512 14.462 13.536C14.324 13.786 10.724 20.142 10.724 20.142C10.536 20.466 10.286 20.81 9.768 20.81V20.812ZM26.138 4.756L18.476 18.306C18.4734 18.3095 18.472 18.3137 18.472 18.318C18.472 18.3223 18.4734 18.3265 18.476 18.33L23.358 27.242C23.452 27.436 23.458 27.63 23.364 27.78C23.276 27.924 23.114 27.998 22.902 27.998H19.446C18.914 27.998 18.652 27.648 18.478 27.342L13.56 18.318L21.26 4.662C21.448 4.33 21.672 4.006 22.186 4.006H25.692C25.898 4.006 26.068 4.088 26.154 4.224C26.242 4.368 26.242 4.562 26.142 4.756H26.138Z" fill="#BF91F2"/>
</svg>
