<svg width="24" height="24" viewBox="0 0 24 24" fill="none" xmlns="http://www.w3.org/2000/svg">
<path d="M18.188 0C17.671 0 17.447 0.325 17.261 0.66C17.261 0.66 9.80601 13.884 9.55901 14.317C9.57401 14.341 14.478 23.34 14.478 23.34C14.648 23.648 14.914 24 15.445 24H18.899C19.11 24 19.274 23.922 19.362 23.78C19.451 23.629 19.451 23.434 19.353 23.244L14.474 14.328C14.47 14.322 14.47 14.312 14.474 14.306L22.139 0.756C22.234 0.565 22.236 0.369 22.145 0.221C22.056 0.078 21.894 0 21.686 0H18.188ZM3.64801 4.74C3.43701 4.74 3.26301 4.814 3.17501 4.956C3.08501 5.105 3.09701 5.295 3.19501 5.487L5.53501 9.537C5.53901 9.547 5.53901 9.553 5.53501 9.558L1.86001 16.051C1.76101 16.239 1.76701 16.432 1.86001 16.58C1.94501 16.722 2.09901 16.814 2.31001 16.814H5.77101C6.28901 16.814 6.53701 16.466 6.71601 16.147L10.45 9.538L8.07201 5.383C7.90001 5.068 7.63801 4.724 7.11001 4.724H3.64801V4.74V4.74Z" fill="#BF91F2"/>
</svg>
